<svg width="42" height="42" viewBox="0 0 42 42" fill="none" xmlns="http://www.w3.org/2000/svg">
<circle cx="21" cy="21" r="20.5" stroke="#FF5C00"/>
<g clip-path="url(#clip0_201_532)">
<path d="M16.1797 22.1604L12.3404 20.9116C12.3404 20.9116 11.8816 20.7257 12.0293 20.3043C12.0597 20.2174 12.1211 20.1434 12.3046 20.0163C13.1553 19.4244 28.05 14.0797 28.05 14.0797C28.05 14.0797 28.4705 13.9382 28.7185 14.0323C28.7799 14.0513 28.8351 14.0862 28.8785 14.1334C28.922 14.1807 28.952 14.2386 28.9657 14.3013C28.9925 14.4119 29.0037 14.5258 28.999 14.6396C28.9978 14.738 28.9858 14.8292 28.9768 14.9723C28.8861 16.4335 26.1714 27.3394 26.1714 27.3394C26.1714 27.3394 26.0089 27.9776 25.427 27.9994C25.284 28.0041 25.1415 27.9799 25.0081 27.9283C24.8746 27.8768 24.7529 27.799 24.6503 27.6995C23.5083 26.7188 19.5613 24.0706 18.6891 23.4882C18.6694 23.4748 18.6528 23.4574 18.6405 23.437C18.6282 23.4167 18.6203 23.394 18.6175 23.3704C18.6053 23.309 18.6722 23.233 18.6722 23.233C18.6722 23.233 25.545 17.134 25.7279 16.4937C25.742 16.4441 25.6885 16.4197 25.6167 16.4414C25.1602 16.609 17.247 21.598 16.3737 22.1486C16.3108 22.1676 16.2444 22.1716 16.1797 22.1604Z" fill="#DCDCDC"/>
</g>
<defs>
<clipPath id="clip0_201_532">
<rect width="24" height="24" fill="white" transform="translate(9 9)"/>
</clipPath>
</defs>
</svg>
